<?xml version="1.0" encoding="UTF-8"?>
<svg width="451.04pt" height="314.08pt" version="1.1" viewBox="0 0 451.04 314.08" xmlns="http://www.w3.org/2000/svg" xmlns:cc="http://creativecommons.org/ns#" xmlns:dc="http://purl.org/dc/elements/1.1/" xmlns:rdf="http://www.w3.org/1999/02/22-rdf-syntax-ns#">
 <metadata>
  <rdf:RDF>
   <cc:Work>
    <dc:type rdf:resource="http://purl.org/dc/dcmitype/StillImage"/>
    <dc:date>2024-07-16T17:17:28.543221</dc:date>
    <dc:format>image/svg+xml</dc:format>
    <dc:creator>
     <cc:Agent>
      <dc:title>Matplotlib v3.8.4, https://matplotlib.org/</dc:title>
     </cc:Agent>
    </dc:creator>
   </cc:Work>
  </rdf:RDF>
 </metadata>
 <defs>
  <style type="text/css">*{stroke-linejoin: round; stroke-linecap: butt}</style>
 </defs>
 <path d="m158.07 290.2-4.2543-8.7904-4.2389-9.4219-2.6455-6.3076-2.9621-7.5652-2.418-6.6802-2.3722-7.1405-2.0704-6.8806-2.0776-7.7882-1.5747-6.808-1.3265-6.738-1.0301-6.3564-.85115-6.7883-.56948-6.6188-.29584-6.5382-.0355-5.2029.18263-5.8277.43994-5.9151.53427-4.6299.94489-5.9338.91589-4.4628 1.0236-4.161 1.2625-4.3691 1.5096-4.4828 1.914-4.8884 2.3824-5.2208 2.0494-3.9336 2.2084-3.7988 2.7506-4.227 2.7271-3.7472 2.2588-2.8273 3.8171-4.3048 3.4157-3.4281 4.071-3.6482 3.8619-3.0839 3.9095-2.797 4.5412-2.8873 4.6198-2.5823 4.7498-2.3197 6.1041-2.5303 3.0113-1.0756 6.2138-1.884 4.2625-1.0446 4.3357-.86549 4.8493-.74055 4.2169-.45384 5.4102-.32832 3.6551-.06196 5.063.12643 6.5315.52955 4.1155.54911 3.0666.51986 6.2238 1.3547 5.3406 1.4964 4.397 1.4772 4.5957 1.7961 3.3645 1.489 5.2221 2.6267 3.7941 2.1706 3.8254 2.4356 3.4158 2.4062 4.0557 3.175 3.8785 3.4047 3.1678 3.09 2.7157 2.9053 3.4331 4.0706 2.4917 3.2843 2.319 3.357 2.8894 4.6801 2.3634 4.3478 1.7022 3.5056 1.8126 4.1805 1.5195 3.9711 1.2271 3.6254 1.4022 4.7864 1.2372 5.0875.93234 4.7297.74852 4.8234.56467 4.9114.42401 5.7743.18461 6.3048-.10097 6.6516-.23813 4.6035-.55743 6.4878-.64067 5.3087-1.0926 7.0339-1.2318 6.434-1.6004 7.0807-1.6659 6.4283-1.768 6.1238-2.4897 7.7753-2.4825 7.042-3.1473 8.1866-3.0276 7.2828-3.6065 8.0922-3.7603 7.903-1.3172 2.6601v0" clip-path="url(#paabe6d58c5)" fill="none" stroke="#00f" stroke-linecap="square"/>
 <path d="m158.07 290.2.14905-7.7754.32097-5.891.6647-7.284.95401-7.0788.95669-5.431 1.0938-5.107 1.4681-5.7164 1.5878-5.2186 1.8653-5.2554 1.87-4.5813 1.8198-3.9556 2.2325-4.3194 2.5561-4.3683 2.6001-3.9319 2.2344-3.035 2.8971-3.533 2.2389-2.4588 3.3369-3.2809 3.325-2.8656 2.1938-1.6928 3.464-2.3819 3.3411-1.9864 3.4469-1.7546 3.5199-1.5036 2.893-1.0296 3.0418-.8906 3.8063-.84718 3.397-.51244 4.0471-.31694 3.7805-.0109 2.7516.16506 3.9131.48779 3.9756.80542 3.6855 1.0341 3.5389 1.264 3.2118 1.3884 3.188 1.6182 3.3633 1.9842 3.1933 2.1682 3.257 2.5238 2.2858 1.9777 2.6383 2.5164 2.3541 2.4788 2.8967 3.3912 2.7927 3.6799 2.7483 4.0884 1.8404 3.0455 2.5475 4.7113 2.1892 4.6184 1.6014 3.8025 1.6545 4.4118 1.712 5.2488 1.2056 4.2665 1.05 4.2544 1.1921 5.7235 1.1322 6.9198.64335 5.1706.57696 6.4279.27665 4.7257.19947 7.4961.006 1.6198v0" clip-path="url(#paabe6d58c5)" fill="none" stroke="#008000" stroke-linecap="square"/>
 <path d="m158.07 292.94c.72629 0 1.4229-.28856 1.9365-.80213.51356-.51356.80212-1.2102.80212-1.9365s-.28856-1.4229-.80212-1.9365c-.51356-.51356-1.2102-.80212-1.9365-.80212s-1.4229.28856-1.9365.80212c-.51357.51357-.80212 1.2102-.80212 1.9365s.28855 1.4229.80212 1.9365c.51356.51357 1.2102.80213 1.9365.80213z" clip-path="url(#paabe6d58c5)" fill="#00f"/>
 <path d="m19.341 15.488c.72629 0 1.4229-.28856 1.9365-.80212s.80212-1.2102.80212-1.9365c0-.72629-.28856-1.4229-.80212-1.9365-.51356-.51356-1.2102-.80212-1.9365-.80212-.72629 0-1.4229.28856-1.9365.80212-.51356.51356-.80212 1.2102-.80212 1.9365 0 .72629.28856 1.4229.80212 1.9365.51356.51356 1.2102.80212 1.9365.80212z" clip-path="url(#paabe6d58c5)" fill="#00f"/>
 <path d="m435.51 15.488c.72629 0 1.4229-.28856 1.9365-.80212.51357-.51356.80213-1.2102.80213-1.9365 0-.72629-.28856-1.4229-.80213-1.9365-.51356-.51356-1.2102-.80212-1.9365-.80212s-1.4229.28856-1.9365.80212c-.51356.51356-.80212 1.2102-.80212 1.9365 0 .72629.28856 1.4229.80212 1.9365s1.2102.80212 1.9365.80212z" clip-path="url(#paabe6d58c5)" fill="#00f"/>
 <path d="m296.79 292.94c.72629 0 1.4229-.28856 1.9365-.80213.51357-.51356.80212-1.2102.80212-1.9365s-.28855-1.4229-.80212-1.9365c-.51356-.51356-1.2102-.80212-1.9365-.80212s-1.4229.28856-1.9365.80212c-.51357.51357-.80212 1.2102-.80212 1.9365s.28855 1.4229.80212 1.9365c.51356.51357 1.2102.80213 1.9365.80213z" clip-path="url(#paabe6d58c5)" fill="#00f"/>
 <path d="m158.07 292.94c.72629 0 1.4229-.28856 1.9365-.80213.51356-.51356.80212-1.2102.80212-1.9365s-.28856-1.4229-.80212-1.9365c-.51356-.51356-1.2102-.80212-1.9365-.80212s-1.4229.28856-1.9365.80212c-.51357.51357-.80212 1.2102-.80212 1.9365s.28855 1.4229.80212 1.9365c.51356.51357 1.2102.80213 1.9365.80213z" clip-path="url(#paabe6d58c5)" fill="#008000"/>
 <path d="m158.07 154.21c.72629 0 1.4229-.28855 1.9365-.80212.51356-.51356.80212-1.2102.80212-1.9365s-.28856-1.4229-.80212-1.9365-1.2102-.80212-1.9365-.80212-1.4229.28856-1.9365.80212c-.51357.51356-.80212 1.2102-.80212 1.9365s.28855 1.4229.80212 1.9365c.51356.51357 1.2102.80212 1.9365.80212z" clip-path="url(#paabe6d58c5)" fill="#008000"/>
 <path d="m296.79 154.21c.72629 0 1.4229-.28855 1.9365-.80212.51357-.51356.80212-1.2102.80212-1.9365s-.28855-1.4229-.80212-1.9365c-.51356-.51356-1.2102-.80212-1.9365-.80212s-1.4229.28856-1.9365.80212c-.51357.51356-.80212 1.2102-.80212 1.9365s.28855 1.4229.80212 1.9365c.51356.51357 1.2102.80212 1.9365.80212z" clip-path="url(#paabe6d58c5)" fill="#008000"/>
 <path d="m296.79 292.94c.72629 0 1.4229-.28856 1.9365-.80213.51357-.51356.80212-1.2102.80212-1.9365s-.28855-1.4229-.80212-1.9365c-.51356-.51356-1.2102-.80212-1.9365-.80212s-1.4229.28856-1.9365.80212c-.51357.51357-.80212 1.2102-.80212 1.9365s.28855 1.4229.80212 1.9365c.51356.51357 1.2102.80213 1.9365.80213z" clip-path="url(#paabe6d58c5)" fill="#008000"/>
 <defs>
  <clipPath id="paabe6d58c5">
   <rect x="11.018" y="7.2" width="432.82" height="288.55"/>
  </clipPath>
 </defs>
 <g stroke-width=".75px">
  <text x="175.11763" y="64.417206" color="#000000" fill="#000000" font-family="'Noto Color Emoji'" font-size="100px" letter-spacing="0px" stroke="#000000" text-align="center" text-anchor="middle" word-spacing="0px" style="line-height:208.333px;text-decoration-color:#000000;text-decoration-line:none" xml:space="preserve"><tspan x="175.11763" y="64.417206" stroke-width=".75px"/></text>
  <path d="m155.58 64.312h4.392l.306.792h-4.95zm6.408 2.718q.09.27.396.342l.756.198v.666h-3.888v-.666l1.314-.252-3.06-8.766h.486l-2.862 8.766 1.296.252v.666h-3.402v-.666l.792-.198q.306-.072.396-.342l3.114-9.072h1.404zm4.014-4.572q.234-.432.648-.864.432-.45.972-.738.558-.288 1.134-.288.198 0 .45.054.27.054.45.144.036.54-.018 1.242-.036.684-.162 1.26h-.666l-.198-1.026q-.054-.216-.162-.306-.09-.09-.288-.09-.522 0-1.08.27-.558.252-1.008.81zm.324-.018v4.59q0 .378.378.414l1.314.144v.648h-4.248v-.666l.792-.126q.36-.054.36-.414v-4.878q0-.396-.36-.45l-.9-.108v-.648q.522-.162 1.116-.252.612-.09 1.134-.108l.216.216zm4.356 2.178q0-1.17.414-2.07.414-.918 1.206-1.44.81-.54 1.998-.54.63 0 1.26.144t1.026.342q.036.522-.018 1.116-.036.576-.108 1.08h-.72l-.288-1.08q-.036-.198-.09-.324t-.18-.216q-.162-.144-.432-.216-.27-.09-.594-.09-.918 0-1.422.738t-.504 2.232q0 1.602.558 2.376.576.774 1.62.774.594 0 1.08-.234t.792-.558l.396.342q-.324.666-1.026 1.044-.684.378-1.656.378-1.098 0-1.836-.486-.738-.504-1.116-1.35-.36-.864-.36-1.962zm13.608 2.412q0 .36.342.414l.954.144v.648h-4.014v-.666l.954-.126q.36-.054.36-.396v-9.072q0-.342-.36-.396l-.99-.144v-.594q.558-.162 1.26-.252.72-.108 1.278-.126l.216.216zm2.376-2.43q0-1.89.936-2.952.954-1.08 2.556-1.08 1.224 0 1.98.666t.756 1.944q0 .18-.018.45-.018.252-.054.468h-5.13v-.684h3.78q.018-.09.018-.162.018-.072.018-.18 0-.774-.414-1.26-.396-.504-1.134-.504-.846 0-1.332.702t-.486 2.268q0 1.188.288 1.89.288.684.774.99.504.288 1.152.288.63 0 1.17-.288.558-.288.882-.792l.45.27q-.234.81-1.008 1.296-.756.486-1.89.486-1.116 0-1.854-.486-.72-.504-1.08-1.35-.36-.864-.36-1.98zm12.51 3.636v-.666l.72-.126q.162-.036.252-.126.108-.09.108-.288v-3.33q0-1.08-.306-1.62-.288-.54-1.134-.54-.666 0-1.278.252-.594.252-1.08.738l.054-.558q.576-.792 1.332-1.098t1.566-.306q1.296 0 1.764.756t.468 2.124v3.582q0 .36.36.414l.81.126v.666zm-4.878 0v-.666l.792-.126q.36-.054.36-.414v-4.914q0-.342-.342-.396l-.918-.126v-.648q.54-.162 1.134-.252.612-.09 1.134-.108l.252.234.144 1.296v4.914q0 .36.342.414l.738.126v.666zm16.704.81q0 .846-.54 1.476-.522.63-1.44.972t-2.124.342q-1.566 0-2.34-.576-.774-.558-.774-1.494 0-.81.522-1.278.522-.45 1.278-.702l.414.126q-.342.27-.594.648t-.252.972q0 .666.414 1.098.432.432 1.584.432 1.098 0 1.782-.432.702-.432.702-1.314 0-.486-.288-.774-.288-.27-1.134-.27h-1.674q-1.044 0-1.602-.324-.54-.324-.54-1.044 0-.666.432-1.026.45-.36.99-.558l.342.27q-.288.126-.468.342-.162.198-.162.522 0 .396.342.558t1.134.162h1.602q1.188 0 1.782.504.612.486.612 1.368zm-.936-5.958q0 1.242-.846 1.98t-2.286.738q-.882 0-1.53-.288t-1.008-.846-.36-1.386q0-.918.414-1.512.432-.612 1.152-.9.72-.306 1.584-.306 1.296 0 2.088.666t.792 1.854zm-4.59.054q0 .954.378 1.458.396.486 1.26.486.756 0 1.134-.432.396-.432.396-1.44t-.396-1.458-1.224-.45q-.432 0-.792.162-.342.144-.558.54-.198.396-.198 1.134zm3.87-1.386-.36-.288q.378-.396.738-.648.378-.252.774-.252.162 0 .36.054.198.036.378.072v1.062zm3.744-.054-1.134-.144v-.612l.828-.126q.18-.036.27-.108.09-.09.126-.252l.486-1.89h.81l.018 2.178h2.448v.9h-2.43v4.266q0 .864.27 1.152.288.27.792.27.414 0 .756-.144.36-.144.612-.432l.396.378q-.288.612-.9.918-.594.306-1.35.306-.54 0-1.008-.162-.45-.162-.72-.594t-.27-1.224zm4.95 6.534v-.666l.792-.126q.36-.054.36-.396v-9.09q0-.342-.36-.396l-.954-.144v-.594q.558-.162 1.242-.252.702-.09 1.26-.108l.216.216v10.35q0 .342.36.414l.702.126v.666zm4.896 0v-.666l.702-.126q.144-.036.252-.126t.108-.288v-3.33q0-1.08-.306-1.62-.288-.54-1.152-.54-.63 0-1.242.252t-1.098.738l.054-.558q.576-.792 1.332-1.098t1.566-.306q1.296 0 1.764.756t.468 2.124v3.582q0 .36.36.414l.81.126v.666zm6.984-6.336q0 .414-.27.684-.252.252-.684.252-.45 0-.72-.252-.252-.27-.252-.684 0-.432.252-.684.27-.252.72-.252.432 0 .684.252.27.252.27.684zm0 5.526q0 .414-.27.684-.252.252-.684.252-.45 0-.72-.252-.252-.27-.252-.684t.252-.666q.27-.27.72-.27.432 0 .684.27.27.252.27.666zm9.18-.45q0 .324.36.378l1.35.216v.666h-5.004v-.666l1.494-.216q.18-.018.288-.108.126-.09.126-.288v-6.3q-.18.072-.522.162-.324.09-.702.162-.36.072-.648.108l-.144-.72q.468-.108.954-.306t.918-.45.756-.522l.774.162zm5.274.45q0 .414-.27.684-.252.252-.684.252t-.702-.252q-.27-.27-.27-.684t.27-.666q.27-.27.702-.27t.684.27q.27.252.27.666zm4.608-.216q.396 0 .81-.018.432-.018.756-.09.288-.054.378-.126.09-.09.144-.252l.45-1.116.756.09q0 .594-.072 1.26t-.18 1.278h-5.868l-.306-.846q1.26-1.152 2.124-1.962.864-.828 1.368-1.422.504-.612.72-1.098.234-.486.234-.99 0-.792-.45-1.242-.432-.45-1.098-.45t-1.17.36q-.486.36-.828.882l-.468-.288q.072-.504.45-.972.396-.486 1.008-.792.63-.324 1.44-.324 1.134 0 1.908.666t.774 1.89q0 .972-.576 1.836-.558.864-1.674 1.818-1.098.936-2.736 2.178l-.036-.27zm7.326.234q.954 0 1.566-.576.63-.576.63-1.602 0-.882-.486-1.404-.468-.522-1.314-.522-.486 0-.918.144t-.792.378l-.576-.396.27-4.212h4.896l-.144 1.116h-3.834l-.234 2.556q.396-.234.864-.342.486-.126.954-.126 1.296 0 2.07.756.774.738.774 1.998 0 .918-.432 1.656-.432.72-1.206 1.134t-1.818.414q-.972 0-1.71-.36-.72-.378-1.008-.9l.378-.468q.378.306.9.54.54.216 1.17.216zm7.992.972q-1.026 0-1.764-.36-.72-.378-1.026-.882l.378-.486q.378.306.9.54.54.216 1.206.216.918 0 1.476-.468.576-.486.576-1.332 0-.756-.468-1.188-.45-.45-1.242-.558-.234.054-.504.108-.252.054-.486.09l-.198-.72q.72-.144 1.278-.414.576-.27.9-.666t.324-.954q0-.54-.378-.882-.36-.36-1.044-.36-.576 0-1.08.27-.486.252-.828.684l-.432-.342q.162-.45.558-.81.396-.378.972-.594t1.242-.216q1.098 0 1.782.576.684.558.684 1.44 0 .594-.288 1.08-.27.468-.72.792t-.936.468q.558 0 1.116.252.558.234.936.738t.378 1.278q0 .81-.45 1.422-.432.612-1.188.954-.738.324-1.674.324zm8.316-1.44q0 .324.36.378l1.35.216v.666h-5.004v-.666l1.494-.216q.18-.018.288-.108.126-.09.126-.288v-6.3q-.18.072-.522.162-.324.09-.702.162-.36.072-.648.108l-.144-.72q.468-.108.954-.306t.918-.45.756-.522l.774.162zm6.084.234q.396 0 .81-.018.432-.018.756-.09.288-.054.378-.126.09-.09.144-.252l.45-1.116.756.09q0 .594-.072 1.26t-.18 1.278h-5.868l-.306-.846q1.26-1.152 2.124-1.962.864-.828 1.368-1.422.504-.612.72-1.098.234-.486.234-.99 0-.792-.45-1.242-.432-.45-1.098-.45t-1.17.36q-.486.36-.828.882l-.468-.288q.072-.504.45-.972.396-.486 1.008-.792.63-.324 1.44-.324 1.134 0 1.908.666t.774 1.89q0 .972-.576 1.836-.558.864-1.674 1.818-1.098.936-2.736 2.178l-.036-.27zm7.326.234q.954 0 1.566-.576.63-.576.63-1.602 0-.882-.486-1.404-.468-.522-1.314-.522-.486 0-.918.144t-.792.378l-.576-.396.27-4.212h4.896l-.144 1.116h-3.834l-.234 2.556q.396-.234.864-.342.486-.126.954-.126 1.296 0 2.07.756.774.738.774 1.998 0 .918-.432 1.656-.432.72-1.206 1.134t-1.818.414q-.972 0-1.71-.36-.72-.378-1.008-.9l.378-.468q.378.306.9.54.54.216 1.17.216zm4.806-1.728q.954-1.548 1.872-3.168.936-1.638 1.8-3.348h1.332l.18.378q-.972 1.728-1.728 2.97-.738 1.224-1.368 2.088-.63.846-1.314 1.44l-.252-.342 6.66-.234v1.008h-6.75zm4.356.27.18-2.556 1.206-.072v4.878h-1.386z" fill="#00f" aria-label="Arc length: 1.2531254"/>
  <path d="m169.7 174.17h3.66l.255.66h-4.125zm5.34 2.265q.075.225.33.285l.63.165v.555h-3.24v-.555l1.095-.21-2.55-7.305h.405l-2.385 7.305 1.08.21v.555h-2.835v-.555l.66-.165q.255-.06.33-.285l2.595-7.56h1.17zm3.345-3.81q.195-.36.54-.72.36-.375.81-.615.465-.24.945-.24.165 0 .375.045.225.045.375.12.03.45-.015 1.035-.03.57-.135 1.05h-.555l-.165-.855q-.045-.18-.135-.255-.075-.075-.24-.075-.435 0-.9.225-.465.21-.84.675zm.27-.015v3.825q0 .315.315.345l1.095.12v.54h-3.54v-.555l.66-.105q.3-.045.3-.345v-4.065q0-.33-.3-.375l-.75-.09v-.54q.435-.135.93-.21.51-.075.945-.09l.18.18zm3.63 1.815q0-.975.345-1.725.345-.765 1.005-1.2.675-.45 1.665-.45.525 0 1.05.12t.855.285q.03.435-.015.93-.03.48-.09.9h-.6l-.24-.9q-.03-.165-.075-.27t-.15-.18q-.135-.12-.36-.18-.225-.075-.495-.075-.765 0-1.185.615t-.42 1.86q0 1.335.465 1.98.48.645 1.35.645.495 0 .9-.195t.66-.465l.33.285q-.27.555-.855.87-.57.315-1.38.315-.915 0-1.53-.405-.615-.42-.93-1.125-.3-.72-.3-1.635zm11.34 2.01q0 .3.285.345l.795.12v.54h-3.345v-.555l.795-.105q.3-.045.3-.33v-7.56q0-.285-.3-.33l-.825-.12v-.495q.465-.135 1.05-.21.6-.09 1.065-.105l.18.18zm1.98-2.025q0-1.575.78-2.46.795-.9 2.13-.9 1.02 0 1.65.555t.63 1.62q0 .15-.015.375-.015.21-.045.39h-4.275v-.57h3.15q.015-.075.015-.135.015-.06.015-.15 0-.645-.345-1.05-.33-.42-.945-.42-.705 0-1.11.585t-.405 1.89q0 .99.24 1.575.24.57.645.825.42.24.96.24.525 0 .975-.24.465-.24.735-.66l.375.225q-.195.675-.84 1.08-.63.405-1.575.405-.93 0-1.545-.405-.6-.42-.9-1.125-.3-.72-.3-1.65zm10.425 3.03v-.555l.6-.105q.135-.03.21-.105.09-.075.09-.24v-2.775q0-.9-.255-1.35-.24-.45-.945-.45-.555 0-1.065.21-.495.21-.9.615l.045-.465q.48-.66 1.11-.915t1.305-.255q1.08 0 1.47.63t.39 1.77v2.985q0 .3.3.345l.675.105v.555zm-4.065 0v-.555l.66-.105q.3-.045.3-.345v-4.095q0-.285-.285-.33l-.765-.105v-.54q.45-.135.945-.21.51-.075.945-.09l.21.195.12 1.08v4.095q0 .3.285.345l.615.105v.555zm13.92.675q0 .705-.45 1.23-.435.525-1.2.81t-1.77.285q-1.305 0-1.95-.48-.645-.465-.645-1.245 0-.675.435-1.065.435-.375 1.065-.585l.345.105q-.285.225-.495.54t-.21.81q0 .555.345.915.36.36 1.32.36.915 0 1.485-.36.585-.36.585-1.095 0-.405-.24-.645-.24-.225-.945-.225h-1.395q-.87 0-1.335-.27-.45-.27-.45-.87 0-.555.36-.855.375-.3.825-.465l.285.225q-.24.105-.39.285-.135.165-.135.435 0 .33.285.465t.945.135h1.335q.99 0 1.485.42.51.405.51 1.14zm-.78-4.965q0 1.035-.705 1.65t-1.905.615q-.735 0-1.275-.24t-.84-.705-.3-1.155q0-.765.345-1.26.36-.51.96-.75.6-.255 1.32-.255 1.08 0 1.74.555t.66 1.545zm-3.825.045q0 .795.315 1.215.33.405 1.05.405.63 0 .945-.36.33-.36.33-1.2t-.33-1.215-1.02-.375q-.36 0-.66.135-.285.12-.465.45-.165.33-.165.945zm3.225-1.155-.3-.24q.315-.33.615-.54.315-.21.645-.21.135 0 .3.045.165.03.315.06v.885zm3.12-.045-.945-.12v-.51l.69-.105q.15-.03.225-.09.075-.075.105-.21l.405-1.575h.675l.015 1.815h2.04v.75h-2.025v3.555q0 .72.225.96.24.225.66.225.345 0 .63-.12.3-.12.51-.36l.33.315q-.24.51-.75.765-.495.255-1.125.255-.45 0-.84-.135-.375-.135-.6-.495t-.225-1.02zm4.125 5.445v-.555l.66-.105q.3-.045.3-.33v-7.575q0-.285-.3-.33l-.795-.12v-.495q.465-.135 1.035-.21.585-.075 1.05-.09l.18.18v8.625q0 .285.3.345l.585.105v.555zm4.08 0v-.555l.585-.105q.12-.03.21-.105t.09-.24v-2.775q0-.9-.255-1.35-.24-.45-.96-.45-.525 0-1.035.21t-.915.615l.045-.465q.48-.66 1.11-.915t1.305-.255q1.08 0 1.47.63t.39 1.77v2.985q0 .3.3.345l.675.105v.555zm5.82-5.28q0 .345-.225.57-.21.21-.57.21-.375 0-.6-.21-.21-.225-.21-.57 0-.36.21-.57.225-.21.6-.21.36 0 .57.21.225.21.225.57zm0 4.605q0 .345-.225.57-.21.21-.57.21-.375 0-.6-.21-.21-.225-.21-.57t.21-.555q.225-.225.6-.225.36 0 .57.225.225.21.225.555zm7.71-6.3q.87 0 1.215.87.36.87.36 2.49 0 .96-.165 1.665-.15.69-.48 1.08-.33.375-.87.375-.885 0-1.23-.87-.345-.885-.345-2.49 0-.96.15-1.65.15-.705.48-1.08.345-.39.885-.39zm-.06 7.125q.915 0 1.575-.48.66-.495 1.005-1.38.36-.9.36-2.13 0-1.095-.27-1.95t-.885-1.335q-.6-.495-1.605-.495-.915 0-1.575.495-.66.48-1.02 1.38-.345.885-.345 2.115 0 1.095.27 1.95t.87 1.35q.615.48 1.62.48zm6.075-.825q0 .345-.225.57-.21.21-.57.21t-.585-.21q-.225-.225-.225-.57t.225-.555q.225-.225.585-.225t.57.225q.225.21.225.555zm3.645-5.925q-.45 0-.795.03-.33.015-.555.045-.165.045-.255.105t-.135.225l-.375 1.17-.645.015q-.015-.645.03-1.275.045-.645.135-1.185h4.83l.315.72q-.675.825-1.215 1.845-.54 1.005-.9 2.22t-.48 2.685h-1.11l-.18-.255q.135-1.2.555-2.37.435-1.17 1.065-2.19.63-1.035 1.38-1.785zm6.09 6.75q-1.275 0-2.01-.885-.72-.885-.72-2.61 0-1.35.465-2.295.465-.96 1.245-1.47.795-.51 1.755-.51.585 0 1.035.18.465.165.69.435l-.255.45q-.255-.135-.585-.21-.315-.09-.66-.09-1.05 0-1.74.84-.675.84-.675 2.565v.345q0 1.185.405 1.905.405.705 1.17.705.66 0 1.035-.495.39-.51.39-1.335 0-.78-.375-1.23t-1.065-.45q-.48 0-.96.195-.465.195-.735.465l-.06-.45q.285-.39.87-.675.6-.3 1.335-.3 1.005 0 1.62.6t.615 1.62q0 .825-.375 1.44-.375.6-1.02.93-.63.33-1.395.33zm6.045-.81q.795 0 1.305-.48.525-.48.525-1.335 0-.735-.405-1.17-.39-.435-1.095-.435-.405 0-.765.12t-.66.315l-.48-.33.225-3.51h4.08l-.12.93h-3.195l-.195 2.13q.33-.195.72-.285.405-.105.795-.105 1.08 0 1.725.63.645.615.645 1.665 0 .765-.36 1.38-.36.6-1.005.945t-1.515.345q-.81 0-1.425-.3-.6-.315-.84-.75l.315-.39q.315.255.75.45.45.18.975.18zm7.245.81q-1.275 0-2.01-.885-.72-.885-.72-2.61 0-1.35.465-2.295.465-.96 1.245-1.47.795-.51 1.755-.51.585 0 1.035.18.465.165.69.435l-.255.45q-.255-.135-.585-.21-.315-.09-.66-.09-1.05 0-1.74.84-.675.84-.675 2.565v.345q0 1.185.405 1.905.405.705 1.17.705.66 0 1.035-.495.39-.51.39-1.335 0-.78-.375-1.23t-1.065-.45q-.48 0-.96.195-.465.195-.735.465l-.06-.45q.285-.39.87-.675.6-.3 1.335-.3 1.005 0 1.62.6t.615 1.62q0 .825-.375 1.44-.375.6-1.02.93-.63.33-1.395.33zm6.93-1.2q0 .27.3.315l1.125.18v.555h-4.17v-.555l1.245-.18q.15-.015.24-.09.105-.075.105-.24v-5.25q-.15.06-.435.135-.27.075-.585.135-.3.06-.54.09l-.12-.6q.39-.09.795-.255t.765-.375.63-.435l.645.135zm5.34 1.2q-1.275 0-2.01-.885-.72-.885-.72-2.61 0-1.35.465-2.295.465-.96 1.245-1.47.795-.51 1.755-.51.585 0 1.035.18.465.165.69.435l-.255.45q-.255-.135-.585-.21-.315-.09-.66-.09-1.05 0-1.74.84-.675.84-.675 2.565v.345q0 1.185.405 1.905.405.705 1.17.705.66 0 1.035-.495.39-.51.39-1.335 0-.78-.375-1.23t-1.065-.45q-.48 0-.96.195-.465.195-.735.465l-.06-.45q.285-.39.87-.675.6-.3 1.335-.3 1.005 0 1.62.6t.615 1.62q0 .825-.375 1.44-.375.6-1.02.93-.63.33-1.395.33z" fill="#007100" aria-label="Arc length: 0.765616"/>
 </g>
</svg>
