<?xml version="1.0" encoding="UTF-8"?>
<svg width="45mm" height="35mm" version="1.1" viewBox="0 0 45 35" xmlns="http://www.w3.org/2000/svg">
 <g transform="translate(-91.1 -90.649)">
  <g transform="translate(-1.4e-5,-1.1e-5)">
   <path d="m133.44 122.67q-1.6228-.59973-2.54-1.517-.88194-.95249-1.2347-2.1167-.3175-1.1994-.3175-2.6106 0-.56444.0353-1.1642.0706-.59972.14111-1.2347l-.28222-.0706q-.81138 2.3283-2.0108 4.1628-1.1994 1.7992-2.5047 2.8222-1.3053.98777-2.4342.98777-1.5875 0-2.4694-.77611-.88195-.81138-1.2347-2.1167-.35278-1.3406-.35278-2.9633 0-1.8697.28222-3.6336.3175-1.7992.59972-3.4925t.28222-3.3161q0-.98778-.10583-1.9403-.10583-.95249-.38805-1.9403 1.4817 0 2.54.28222 1.0936.28222 1.6933 1.0936.635.77611.635 2.3989 0 1.27-.38806 3.0692-.35277 1.7992-.74083 3.7042-.35277 1.905-.35277 3.5983 0 1.3053.35277 1.9756.38806.635 1.1994.635.77611 0 1.6228-.81139.88194-.84667 1.658-2.2578.81139-1.4464 1.4111-3.2456.635-1.8344.98777-3.8453.35278-2.0108.35278-4.0217-.0353-.67027-.10583-1.3758-.0353-.74083-.17639-1.3758.3175-.0353.635-.0353.35278-.0353.59972-.0353.91722 0 1.6228.24694.74084.24694 1.1994.9525.45861.67027.45861 1.9403 0 .67028-.21167 1.9756-.17639 1.3053-.45861 2.9986-.28222 1.658-.49389 3.4572-.17639 1.7639-.17639 3.4219 0 1.6228.14111 3.175t.52917 2.9986z"/>
   <path d="m111.4 114.94q.52916.0353.9525.35278.45861.3175.45861.70555-1.6581 3.2103-4.3392 5.0094-2.6458 1.7992-5.7855 1.7992-2.9281 0-5.08-1.5522-2.1519-1.5875-3.3514-4.445-1.1642-2.8575-1.1642-6.7733 0-3.6689.9525-6.7028.98778-3.0339 2.7517-5.2211 1.7992-2.2225 4.2333-3.4219 2.4342-1.1994 5.3975-1.1994 3.3867 0 5.3622 1.7286 2.0108 1.7286 2.0108 4.6919 0 1.5522-.59972 2.7517t-1.658 1.905q-1.023.67027-2.3636.67027-.3175 0-.74083-.0705-.38805-.0706-.91722-.21167.56444-.67028 1.023-1.5875.45861-.95249.70556-1.9756.24694-1.0583.24694-2.0108 0-1.7639-.88194-2.7164t-2.4694-.9525q-1.7992 0-3.3867 1.1289-1.5522 1.1289-2.7517 3.1397-1.1994 2.0108-1.8697 4.6214-.67028 2.6106-.67028 5.6092 0 3.0339.77611 5.2916.81139 2.2225 2.2578 3.4219 1.4464 1.1994 3.4219 1.1994 2.1519 0 4.1275-1.3758 2.0108-1.4111 3.3514-3.81z"/>
  </g>
 </g>
</svg>
