<?xml version="1.0" encoding="UTF-8"?>
<svg width="375pt" height="375pt" version="1.1" viewBox="0 0 375 375" xmlns="http://www.w3.org/2000/svg">
 <circle cx="187.5" cy="187.5" r="176.55" fill="#d9d9d9" fill-rule="evenodd" stroke="#000" stroke-width=".75px"/>
 <g transform="matrix(3.3053 0 0 3.3053 174 49.782)">
  <path d="m2.6094-5.9062c0-.5.015625-.57812.54688-.57812.10938 0 .26562 0 .26562-.17188s-.14062-.17188-.32812-.17188h-2.6094c-.1875 0-.34375 0-.34375.17188s.1875.17188.26562.17188c.57812 0 .60938.078125.60938.57812v4.9844c0 .46875-.03125.57812-.5625.57812-.14062 0-.3125 0-.3125.17188s.15625.17188.34375.17188h5.2812c.1875 0 .28125 0 .3125-.125.015625-.03125.29688-1.8906.29688-1.9219 0-.10938-.09375-.1875-.17188-.1875s-.15625.0625-.1875.14062c-.046875.29688-.15625.78125-.98438 1.2969-.64062.40625-1.1562.45312-1.4844.45312h-.51562c-.23438 0-.42188 0-.42188-.67188zm-1.25-.03125c0-.10938 0-.35938-.078125-.54688h1.0469c-.078125.1875-.078125.42188-.078125.54688v4.9375c0 .35938.078125.5625.10938.65625h-1.0781c.078125-.1875.078125-.4375.078125-.54688zm4.4062 5.5938h-.78125v-.015625c.45312-.25.70312-.5.875-.67188z"/>
 </g>
 <circle cx="150" cy="187.5" r="113.51" fill="#0f0" fill-opacity=".5" fill-rule="evenodd" stroke="#000" stroke-width=".75"/>
 <path d="m66.964 158.12h25.616" fill="none" stroke="#000" stroke-miterlimit="10" stroke-width="1.3155"/>
 <g transform="matrix(3.3053 0 0 3.3053 66.961 185.42)">
  <path d="m4.7656.09375c1.4062-.29688 2.6562-1.4062 2.6562-3.5 0-2.5156-1.7656-3.6094-3.5469-3.6094-1.8281 0-3.5469 1.1406-3.5469 3.5938 0 2.1406 1.2812 3.1562 2.4531 3.4688.45312 1.0156 1.4375 1.7344 2.6719 1.7344.5 0 1.0469-.09375 1.5625-.29688.1875-.0625.28125-.10938.28125-.23438 0-.10938-.09375-.17188-.17188-.17188-.015625 0-.03125 0-.09375.015625-.28125.078125-.39062.078125-.54688.078125-.92188 0-1.4844-.57812-1.7188-1.0781zm-2.2656-6.4844c-.60938.70312-.76562 1.875-.76562 2.9688 0 .98438.125 2.2188.78125 3-.6875-.25-1.8438-1.0469-1.8438-2.9844 0-2.0312 1.2344-2.7812 1.8281-3zm2.7656-.015625c.67188.25 1.8125 1.0469 1.8125 2.9844 0 2.0312-1.2344 2.7812-1.8281 3 .60938-.71875.76562-1.8906.76562-2.9844 0-.98438-.10938-2.2188-.76562-2.9844zm-1.3906 6.25c-1.6094 0-1.7969-2.1094-1.7969-3.25 0-1.2031.20312-3.2656 1.7969-3.2656 1.625 0 1.7969 2.1094 1.7969 3.25 0 1.2031-.20312 3.2656-1.7969 3.2656zm-.65625.29688c.28125.046875.65625.046875.65625.046875.046875 0 .26562 0 .54688-.03125.26562.625.73438 1.0156 1.2344 1.2031.09375.046875.10938.046875.10938.0625s-.1875.015625-.3125.015625c-.84375 0-1.7188-.40625-2.2344-1.2969z"/>
 </g>
 <circle cx="225" cy="187.5" r="113.51" fill="#f00" fill-opacity=".5" fill-rule="evenodd" stroke="#000" stroke-width=".75"/>
 <g transform="matrix(3.3053 0 0 3.3053 279 186)">
  <path d="m2.5781-3.3438c.25 0 .73438 0 1.0781.20312.48438.3125.51562.84375.51562.90625.015625.14062.015625.26562.1875.26562s.17188-.14062.17188-.3125v-2.7031c0-.15625 0-.3125-.17188-.3125s-.1875.14062-.1875.21875c-.0625 1.2969-1.0781 1.3594-1.5938 1.375v-2.1094c0-.67188.1875-.67188.4375-.67188h.46875c1.3438 0 2.0156.6875 2.0781 1.375.015625.078125.015625.23438.17188.23438.17188 0 .17188-.15625.17188-.32812v-1.2969c0-.3125-.015625-.32812-.32812-.32812h-5.0938c-.1875 0-.34375 0-.34375.17188s.1875.17188.26562.17188c.57812 0 .60938.078125.60938.57812v4.9844c0 .46875-.03125.57812-.5625.57812-.14062 0-.3125 0-.3125.17188s.15625.17188.34375.17188h5.2812c.1875 0 .28125 0 .3125-.14062.015625-.015625.29688-1.6719.29688-1.7188 0-.10938-.09375-.1875-.17188-.1875-.14062 0-.1875.14062-.1875.14062-.046875.26562-.15625.6875-.875 1.1094-.53125.3125-1.0312.45312-1.5781.45312h-.54688c-.25 0-.4375 0-.4375-.67188zm2.9844-3.1406v.48438c-.17188-.1875-.35938-.34375-.5625-.48438zm-1.9375 2.9219c.15625-.0625.375-.21875.54688-.42188v.82812c-.23438-.26562-.54688-.39062-.54688-.39062zm-2.2656-2.375c0-.10938 0-.35938-.078125-.54688h1.0625c-.10938.23438-.10938.5625-.10938.65625v4.8281c0 .35938.0625.5625.10938.65625h-1.0625c.078125-.1875.078125-.4375.078125-.54688zm3.7188 5.5938v-.015625c.3125-.15625.57812-.375.78125-.54688 0 .03125-.078125.48438-.09375.5625z"/>
 </g>
 <circle cx="187.5" cy="187.5" r="50" fill="#00f" fill-opacity=".5" fill-rule="evenodd" stroke="#000" stroke-width=".75px"/>
 <g transform="matrix(3.3053 0 0 3.3053 174.69 196.15)">
  <path d="m4.7656.09375c1.4062-.29688 2.6562-1.4062 2.6562-3.5 0-2.5156-1.7656-3.6094-3.5469-3.6094-1.8281 0-3.5469 1.1406-3.5469 3.5938 0 2.1406 1.2812 3.1562 2.4531 3.4688.45312 1.0156 1.4375 1.7344 2.6719 1.7344.5 0 1.0469-.09375 1.5625-.29688.1875-.0625.28125-.10938.28125-.23438 0-.10938-.09375-.17188-.17188-.17188-.015625 0-.03125 0-.09375.015625-.28125.078125-.39062.078125-.54688.078125-.92188 0-1.4844-.57812-1.7188-1.0781zm-2.2656-6.4844c-.60938.70312-.76562 1.875-.76562 2.9688 0 .98438.125 2.2188.78125 3-.6875-.25-1.8438-1.0469-1.8438-2.9844 0-2.0312 1.2344-2.7812 1.8281-3zm2.7656-.015625c.67188.25 1.8125 1.0469 1.8125 2.9844 0 2.0312-1.2344 2.7812-1.8281 3 .60938-.71875.76562-1.8906.76562-2.9844 0-.98438-.10938-2.2188-.76562-2.9844zm-1.3906 6.25c-1.6094 0-1.7969-2.1094-1.7969-3.25 0-1.2031.20312-3.2656 1.7969-3.2656 1.625 0 1.7969 2.1094 1.7969 3.25 0 1.2031-.20312 3.2656-1.7969 3.2656zm-.65625.29688c.28125.046875.65625.046875.65625.046875.046875 0 .26562 0 .54688-.03125.26562.625.73438 1.0156 1.2344 1.2031.09375.046875.10938.046875.10938.0625s-.1875.015625-.3125.015625c-.84375 0-1.7188-.40625-2.2344-1.2969z"/>
 </g>
 <g transform="matrix(1.7465 0 0 1.7465 256.77 111.58)">
  <path d="m2.6406-3.7188h1.125c-.32812 1.4688-.42188 1.9062-.42188 2.5781 0 .14062 0 .40625.078125.75.10938.4375.21875.5.35938.5.20312 0 .42188-.17188.42188-.375 0-.0625 0-.078125-.0625-.21875-.29688-.71875-.29688-1.375-.29688-1.6562 0-.51562.078125-1.0625.1875-1.5781h1.125c.14062 0 .5 0 .5-.34375 0-.23438-.21875-.23438-.40625-.23438h-3.3438c-.21875 0-.59375 0-1.0312.46875-.34375.39062-.60938.84375-.60938.89062 0 .015625 0 .10938.125.10938.078125 0 .09375-.046875.15625-.125.48438-.76562 1.0625-.76562 1.2656-.76562h.5625c-.3125 1.2031-.84375 2.4062-1.2656 3.3125-.078125.15625-.078125.17188-.078125.25 0 .1875.15625.26562.28125.26562.29688 0 .375-.28125.5-.64062.14062-.46875.14062-.48438.26562-.98438z"/>
 </g>
 <g transform="matrix(1.7465 0 0 1.7465 277.97 130.04)">
  <path d="m1.8594-2.2969c.29688 0 1.0312-.03125 1.5312-.23438.70312-.29688.75-.89062.75-1.0312 0-.4375-.375-.84375-1.0625-.84375-1.1094 0-2.625.96875-2.625 2.7188 0 1.0156.59375 1.7969 1.5781 1.7969 1.4219 0 2.25-1.0625 2.25-1.1719 0-.0625-.046875-.14062-.10938-.14062s-.078125.03125-.14062.10938c-.78125.98438-1.875.98438-1.9844.98438-.78125 0-.875-.84375-.875-1.1562 0-.125.015625-.42188.15625-1.0312zm-.46875-.21875c.39062-1.5156 1.4219-1.6719 1.6875-1.6719.45312 0 .73438.29688.73438.625 0 1.0469-1.5938 1.0469-2.0156 1.0469z"/>
 </g>
 <g transform="translate(262.45 -27.848)">
  <path d="m-74.394 137.28h8.6983" fill="none" stroke="#000" stroke-miterlimit="10" stroke-width=".398"/>
  <path d="m-82.123 152.5-3.0563-6.7676c-.13644-.27289-.21831-.27289-.27289-.27289 0 0-.10916 0-.30018.13645l-1.6373 1.2553c-.21831.19102-.21831.21831-.21831.27289 0 .10915.02729.19102.16373.19102.10915 0 .40933-.2456.60035-.38204.08187-.0819.35475-.27289.54578-.40934l3.4384 7.5317c.10915.27289.19102.27289.35475.27289.27289 0 .32746-.0819.43662-.32746l7.9137-16.373c.10916-.2456.10916-.30018.10916-.35475 0-.16374-.13644-.35476-.35475-.35476-.13644 0-.2456.10916-.38204.38205z" stroke-width="1.7465"/>
  <path d="m-72.181 151.53 1.8556-1.801c2.7016-2.4014 3.7386-3.3292 3.7386-5.0757 0-1.9921-1.5555-3.3838-3.684-3.3838-1.9648 0-3.2474 1.61-3.2474 3.1655 0 .95511.87324.95511.92782.95511.30018 0 .90053-.19102.90053-.92782 0-.43662-.32746-.90053-.92782-.90053-.13644 0-.16373 0-.21831.0273.38204-1.1461 1.3371-1.7738 2.3468-1.7738 1.5827 0 2.3195 1.419 2.3195 2.838 0 1.3917-.84595 2.7562-1.8283 3.8477l-3.3292 3.7113c-.19102.19102-.19102.2456-.19102.65493h6.4674l.46391-3.029h-.40933c-.10916.51849-.21831 1.2826-.40933 1.5555-.10916.13644-1.2553.13644-1.6373.13644z" stroke-width="1.7465"/>
 </g>
 <g transform="matrix(.56461 0 0 .58415 196.2 78.848)">
  <g transform="matrix(1.7465 0 0 1.7465 -63.604 141.1)">
   <path d="m2.9375-6.375c0-.25 0-.26562-.23438-.26562-.625.64062-1.5.64062-1.8125.64062v.3125c.20312 0 .78125 0 1.2969-.26562v5.1719c0 .35938-.03125.46875-.92188.46875h-.3125v.3125c.34375-.03125 1.2031-.03125 1.6094-.03125.39062 0 1.2656 0 1.6094.03125v-.3125h-.3125c-.90625 0-.92188-.10938-.92188-.46875z"/>
  </g>
  <path d="m-63.601 148.52h8.6983" fill="none" stroke="#000" stroke-miterlimit="10" stroke-width=".398"/>
  <g transform="matrix(1.7465 0 0 1.7465 -63.604 164.81)">
   <path d="m1.2656-.76562 1.0625-1.0312c1.5469-1.375 2.1406-1.9062 2.1406-2.9062 0-1.1406-.89062-1.9375-2.1094-1.9375-1.125 0-1.8594.92188-1.8594 1.8125 0 .54688.5.54688.53125.54688.17188 0 .51562-.10938.51562-.53125 0-.25-.1875-.51562-.53125-.51562-.078125 0-.09375 0-.125.015625.21875-.65625.76562-1.0156 1.3438-1.0156.90625 0 1.3281.8125 1.3281 1.625 0 .79688-.48438 1.5781-1.0469 2.2031l-1.9062 2.125c-.10938.10938-.10938.14062-.10938.375h3.7031l.26562-1.7344h-.23438c-.0625.29688-.125.73438-.23438.89062-.0625.078125-.71875.078125-.9375.078125z"/>
  </g>
 </g>
 <g transform="matrix(.56461 0 0 .58415 220.79 74.396)">
  <g transform="matrix(1.7465 0 0 1.7465 -48.951 152.87)">
   <path d="m6.5625-2.2969c.17188 0 .35938 0 .35938-.20312 0-.1875-.1875-.1875-.35938-.1875h-5.3906c-.17188 0-.34375 0-.34375.1875 0 .20312.17188.20312.34375.20312z"/>
  </g>
  <g transform="matrix(1.7465 0 0 1.7465 -29.462 141.1)">
   <path d="m2.8906-3.5156c.8125-.26562 1.3906-.95312 1.3906-1.75 0-.8125-.875-1.375-1.8281-1.375-1 0-1.7656.59375-1.7656 1.3594 0 .32812.21875.51562.51562.51562s.5-.21875.5-.51562c0-.48438-.46875-.48438-.60938-.48438.29688-.5.95312-.625 1.3125-.625.42188 0 .96875.21875.96875 1.1094 0 .125-.03125.70312-.28125 1.1406-.29688.48438-.64062.51562-.89062.51562-.078125.015625-.3125.03125-.39062.03125-.078125.015625-.14062.03125-.14062.125 0 .10938.0625.10938.23438.10938h.4375c.8125 0 1.1875.67188 1.1875 1.6562 0 1.3594-.6875 1.6406-1.125 1.6406s-1.1875-.17188-1.5312-.75c.34375.046875.65625-.17188.65625-.54688 0-.35938-.26562-.5625-.54688-.5625-.25 0-.5625.14062-.5625.57812 0 .90625.92188 1.5625 2.0156 1.5625 1.2188 0 2.125-.90625 2.125-1.9219 0-.8125-.64062-1.5938-1.6719-1.8125z"/>
  </g>
  <path d="m-29.463 148.52h8.6983" fill="none" stroke="#000" stroke-miterlimit="10" stroke-width=".398"/>
  <g transform="matrix(1.7465 0 0 1.7465 -29.462 164.81)">
   <path d="m2.9375-1.6406v.85938c0 .35938-.03125.46875-.76562.46875h-.20312v.3125c.40625-.03125.92188-.03125 1.3438-.03125s.9375 0 1.3594.03125v-.3125h-.21875c-.73438 0-.75-.10938-.75-.46875v-.85938h.98438v-.3125h-.98438v-4.5312c0-.20312 0-.26562-.17188-.26562-.078125 0-.10938 0-.1875.125l-3.0625 4.6719v.3125zm.046875-.3125h-2.4219l2.4219-3.7188z"/>
  </g>
 </g>
 <g transform="matrix(1.7465 0 0 1.7465 214.8 134.36)">
  <path d="m2.8281-6.2344c0-.20312-.14062-.35938-.35938-.35938-.28125 0-.54688.26562-.54688.53125 0 .1875.14062.35938.375.35938s.53125-.23438.53125-.53125zm-.75 3.75c.10938-.28125.10938-.3125.21875-.57812.078125-.20312.125-.34375.125-.53125 0-.4375-.3125-.8125-.8125-.8125-.9375 0-1.3125 1.4531-1.3125 1.5312 0 .10938.09375.10938.10938.10938.10938 0 .10938-.03125.15625-.1875.28125-.9375.67188-1.2344 1.0156-1.2344.078125 0 .25 0 .25.3125 0 .21875-.078125.42188-.10938.53125-.078125.25-.53125 1.4062-.6875 1.8438-.10938.25-.23438.57812-.23438.79688 0 .46875.34375.8125.8125.8125.9375 0 1.3125-1.4375 1.3125-1.5312 0-.10938-.09375-.10938-.125-.10938-.09375 0-.09375.03125-.14062.1875-.1875.625-.51562 1.2344-1.0156 1.2344-.17188 0-.25-.09375-.25-.32812 0-.25.0625-.39062.29688-1z"/>
 </g>
</svg>
