<?xml version="1.0" encoding="UTF-8"?>
<svg width="451.23pt" height="238.04pt" version="1.1" viewBox="0 0 451.23 238.04" xmlns="http://www.w3.org/2000/svg" xmlns:cc="http://creativecommons.org/ns#" xmlns:dc="http://purl.org/dc/elements/1.1/" xmlns:rdf="http://www.w3.org/1999/02/22-rdf-syntax-ns#" xmlns:xlink="http://www.w3.org/1999/xlink">
 <metadata>
  <rdf:RDF>
   <cc:Work>
    <dc:type rdf:resource="http://purl.org/dc/dcmitype/StillImage"/>
    <dc:date>2024-07-16T16:44:12.707715</dc:date>
    <dc:format>image/svg+xml</dc:format>
    <dc:creator>
     <cc:Agent>
      <dc:title>Matplotlib v3.8.4, https://matplotlib.org/</dc:title>
     </cc:Agent>
    </dc:creator>
   </cc:Work>
  </rdf:RDF>
 </metadata>
 <defs>
  <style type="text/css">*{stroke-linejoin: round; stroke-linecap: butt}</style>
 </defs>
 <path d="m0 238.04h451.23v-238.04h-451.23z" fill="#fff"/>
 <path d="m21.987 218.22h422.04v-211.02h-422.04z" fill="#fff"/>
 <defs>
  <path id="m787d4fc753" d="m0 0v3.5" stroke="#000" stroke-width=".8"/>
 </defs>
 <use x="30.103125" y="214.162112" stroke="#000000" stroke-width=".8" xlink:href="#m787d4fc753"/>
 <use x="111.264737" y="214.162112" stroke="#000000" stroke-width=".8" xlink:href="#m787d4fc753"/>
 <!-- 0.2 -->
 <g transform="translate(103.31 228.76) scale(.1 -.1)">
  <defs>
   <path id="DejaVuSans-30" transform="scale(.015625)" d="m2034 4250q-487 0-733-480-245-479-245-1442 0-959 245-1439 246-480 733-480 491 0 736 480 246 480 246 1439 0 963-246 1442-245 480-736 480zm0 500q785 0 1199-621 414-620 414-1801 0-1178-414-1799-414-620-1199-620-784 0-1198 620-414 621-414 1799 0 1181 414 1801 414 621 1198 621z"/>
   <path id="DejaVuSans-2e" transform="scale(.015625)" d="m684 794h660v-794h-660v794z"/>
   <path id="DejaVuSans-32" transform="scale(.015625)" d="m1228 531h2203v-531h-2962v531q359 372 979 998 621 627 780 809 303 340 423 576 121 236 121 464 0 372-261 606-261 235-680 235-297 0-627-103-329-103-704-313v638q381 153 712 231 332 78 607 78 725 0 1156-363 431-362 431-968 0-288-108-546-107-257-392-607-78-91-497-524-418-433-1181-1211z"/>
  </defs>
  <use xlink:href="#DejaVuSans-30"/>
  <use x="63.623047" xlink:href="#DejaVuSans-2e"/>
  <use x="95.410156" xlink:href="#DejaVuSans-32"/>
 </g>
 <use x="192.42635" y="214.162112" stroke="#000000" stroke-width=".8" xlink:href="#m787d4fc753"/>
 <!-- 0.4 -->
 <g transform="translate(184.47 228.76) scale(.1 -.1)">
  <defs>
   <path id="DejaVuSans-34" transform="scale(.015625)" d="m2419 4116-1594-2491h1594v2491zm-166 550h794v-3041h666v-525h-666v-1100h-628v1100h-2106v609l1940 2957z"/>
  </defs>
  <use xlink:href="#DejaVuSans-30"/>
  <use x="63.623047" xlink:href="#DejaVuSans-2e"/>
  <use x="95.410156" xlink:href="#DejaVuSans-34"/>
 </g>
 <use x="273.587962" y="214.162112" stroke="#000000" stroke-width=".8" xlink:href="#m787d4fc753"/>
 <!-- 0.6 -->
 <g transform="translate(265.64 228.76) scale(.1 -.1)">
  <defs>
   <path id="DejaVuSans-36" transform="scale(.015625)" d="m2113 2584q-425 0-674-291-248-290-248-796 0-503 248-796 249-292 674-292t673 292q248 293 248 796 0 506-248 796-248 291-673 291zm1253 1979v-575q-238 112-480 171-242 60-480 60-625 0-955-422-329-422-376-1275 184 272 462 417 279 145 613 145 703 0 1111-427 408-426 408-1160 0-719-425-1154-425-434-1131-434-810 0-1238 620-428 621-428 1799 0 1106 525 1764t1409 658q238 0 480-47t505-140z"/>
  </defs>
  <use xlink:href="#DejaVuSans-30"/>
  <use x="63.623047" xlink:href="#DejaVuSans-2e"/>
  <use x="95.410156" xlink:href="#DejaVuSans-36"/>
 </g>
 <use x="354.749575" y="214.162112" stroke="#000000" stroke-width=".8" xlink:href="#m787d4fc753"/>
 <!-- 0.8 -->
 <g transform="translate(346.8 228.76) scale(.1 -.1)">
  <defs>
   <path id="DejaVuSans-38" transform="scale(.015625)" d="m2034 2216q-450 0-708-241-257-241-257-662 0-422 257-663 258-241 708-241t709 242q260 243 260 662 0 421-258 662-257 241-711 241zm-631 268q-406 100-633 378-226 279-226 679 0 559 398 884 399 325 1092 325 697 0 1094-325t397-884q0-400-227-679-226-278-629-378 456-106 710-416 255-309 255-755 0-679-414-1042-414-362-1186-362-771 0-1186 362-414 363-414 1042 0 446 256 755 257 310 713 416zm-231 997q0-362 226-565 227-203 636-203 407 0 636 203 230 203 230 565 0 363-230 566-229 203-636 203-409 0-636-203-226-203-226-566z"/>
  </defs>
  <use xlink:href="#DejaVuSans-30"/>
  <use x="63.623047" xlink:href="#DejaVuSans-2e"/>
  <use x="95.410156" xlink:href="#DejaVuSans-38"/>
 </g>
 <use x="435.911187" y="214.162112" stroke="#000000" stroke-width=".8" xlink:href="#m787d4fc753"/>
 <!-- 1.0 -->
 <g transform="translate(427.96 228.76) scale(.1 -.1)">
  <defs>
   <path id="DejaVuSans-31" transform="scale(.015625)" d="m794 531h1031v3560l-1122-225v575l1116 225h631v-4135h1031v-531h-2687v531z"/>
  </defs>
  <use xlink:href="#DejaVuSans-31"/>
  <use x="63.623047" xlink:href="#DejaVuSans-2e"/>
  <use x="95.410156" xlink:href="#DejaVuSans-30"/>
 </g>
 <defs>
  <path id="m509068fb0d" d="m0 0v2" stroke="#000" stroke-width=".6"/>
 </defs>
 <use x="50.393528" y="214.162112" stroke="#000000" stroke-width=".6" xlink:href="#m509068fb0d"/>
 <use x="70.683931" y="214.162112" stroke="#000000" stroke-width=".6" xlink:href="#m509068fb0d"/>
 <use x="90.974334" y="214.162112" stroke="#000000" stroke-width=".6" xlink:href="#m509068fb0d"/>
 <use x="131.555141" y="214.162112" stroke="#000000" stroke-width=".6" xlink:href="#m509068fb0d"/>
 <use x="151.845544" y="214.162112" stroke="#000000" stroke-width=".6" xlink:href="#m509068fb0d"/>
 <use x="172.135947" y="214.162112" stroke="#000000" stroke-width=".6" xlink:href="#m509068fb0d"/>
 <use x="212.716753" y="214.162112" stroke="#000000" stroke-width=".6" xlink:href="#m509068fb0d"/>
 <use x="233.007156" y="214.162112" stroke="#000000" stroke-width=".6" xlink:href="#m509068fb0d"/>
 <use x="253.297559" y="214.162112" stroke="#000000" stroke-width=".6" xlink:href="#m509068fb0d"/>
 <use x="293.878365" y="214.162112" stroke="#000000" stroke-width=".6" xlink:href="#m509068fb0d"/>
 <use x="314.168768" y="214.162112" stroke="#000000" stroke-width=".6" xlink:href="#m509068fb0d"/>
 <use x="334.459172" y="214.162112" stroke="#000000" stroke-width=".6" xlink:href="#m509068fb0d"/>
 <use x="375.039978" y="214.162112" stroke="#000000" stroke-width=".6" xlink:href="#m509068fb0d"/>
 <use x="395.330381" y="214.162112" stroke="#000000" stroke-width=".6" xlink:href="#m509068fb0d"/>
 <use x="415.620784" y="214.162112" stroke="#000000" stroke-width=".6" xlink:href="#m509068fb0d"/>
 <defs>
  <path id="m1bfaad7aef" d="m0 0h-3.5" stroke="#000" stroke-width=".8"/>
 </defs>
 <use x="30.103125" y="214.162112" stroke="#000000" stroke-width=".8" xlink:href="#m1bfaad7aef"/>
 <use x="30.103125" y="173.581305" stroke="#000000" stroke-width=".8" xlink:href="#m1bfaad7aef"/>
 <!-- 0.1 -->
 <g transform="translate(7.2 177.38) scale(.1 -.1)">
  <use xlink:href="#DejaVuSans-30"/>
  <use x="63.623047" xlink:href="#DejaVuSans-2e"/>
  <use x="95.410156" xlink:href="#DejaVuSans-31"/>
 </g>
 <use x="30.103125" y="133.000499" stroke="#000000" stroke-width=".8" xlink:href="#m1bfaad7aef"/>
 <!-- 0.2 -->
 <g transform="translate(7.2 136.8) scale(.1 -.1)">
  <use xlink:href="#DejaVuSans-30"/>
  <use x="63.623047" xlink:href="#DejaVuSans-2e"/>
  <use x="95.410156" xlink:href="#DejaVuSans-32"/>
 </g>
 <use x="30.103125" y="92.419693" stroke="#000000" stroke-width=".8" xlink:href="#m1bfaad7aef"/>
 <!-- 0.3 -->
 <g transform="translate(7.2 96.219) scale(.1 -.1)">
  <defs>
   <path id="DejaVuSans-33" transform="scale(.015625)" d="m2597 2516q453-97 707-404 255-306 255-756 0-690-475-1069-475-378-1350-378-293 0-604 58t-642 174v609q262-153 574-231 313-78 654-78 593 0 904 234t311 681q0 413-289 645-289 233-804 233h-544v519h569q465 0 712 186t247 536q0 359-255 551-254 193-729 193-260 0-557-57-297-56-653-174v562q360 100 674 150t592 50q719 0 1137-327 419-326 419-882 0-388-222-655t-631-370z"/>
  </defs>
  <use xlink:href="#DejaVuSans-30"/>
  <use x="63.623047" xlink:href="#DejaVuSans-2e"/>
  <use x="95.410156" xlink:href="#DejaVuSans-33"/>
 </g>
 <use x="30.103125" y="51.838887" stroke="#000000" stroke-width=".8" xlink:href="#m1bfaad7aef"/>
 <!-- 0.4 -->
 <g transform="translate(7.2 55.638) scale(.1 -.1)">
  <use xlink:href="#DejaVuSans-30"/>
  <use x="63.623047" xlink:href="#DejaVuSans-2e"/>
  <use x="95.410156" xlink:href="#DejaVuSans-34"/>
 </g>
 <use x="30.103125" y="11.258081" stroke="#000000" stroke-width=".8" xlink:href="#m1bfaad7aef"/>
 <!-- 0.5 -->
 <g transform="translate(7.2 15.057) scale(.1 -.1)">
  <defs>
   <path id="DejaVuSans-35" transform="scale(.015625)" d="m691 4666h2478v-532h-1900v-1143q137 47 274 70 138 23 276 23 781 0 1237-428 457-428 457-1159 0-753-469-1171-469-417-1322-417-294 0-599 50-304 50-629 150v635q281-153 581-228t634-75q541 0 856 284 316 284 316 772 0 487-316 771-315 285-856 285-253 0-505-56-251-56-513-175v2344z"/>
  </defs>
  <use xlink:href="#DejaVuSans-30"/>
  <use x="63.623047" xlink:href="#DejaVuSans-2e"/>
  <use x="95.410156" xlink:href="#DejaVuSans-35"/>
 </g>
 <defs>
  <path id="m34767d432e" d="m0 0h-2" stroke="#000" stroke-width=".6"/>
 </defs>
 <use x="30.103125" y="206.04595" stroke="#000000" stroke-width=".6" xlink:href="#m34767d432e"/>
 <use x="30.103125" y="197.929789" stroke="#000000" stroke-width=".6" xlink:href="#m34767d432e"/>
 <use x="30.103125" y="189.813628" stroke="#000000" stroke-width=".6" xlink:href="#m34767d432e"/>
 <use x="30.103125" y="181.697467" stroke="#000000" stroke-width=".6" xlink:href="#m34767d432e"/>
 <use x="30.103125" y="165.465144" stroke="#000000" stroke-width=".6" xlink:href="#m34767d432e"/>
 <use x="30.103125" y="157.348983" stroke="#000000" stroke-width=".6" xlink:href="#m34767d432e"/>
 <use x="30.103125" y="149.232822" stroke="#000000" stroke-width=".6" xlink:href="#m34767d432e"/>
 <use x="30.103125" y="141.116661" stroke="#000000" stroke-width=".6" xlink:href="#m34767d432e"/>
 <use x="30.103125" y="124.884338" stroke="#000000" stroke-width=".6" xlink:href="#m34767d432e"/>
 <use x="30.103125" y="116.768177" stroke="#000000" stroke-width=".6" xlink:href="#m34767d432e"/>
 <use x="30.103125" y="108.652016" stroke="#000000" stroke-width=".6" xlink:href="#m34767d432e"/>
 <use x="30.103125" y="100.535854" stroke="#000000" stroke-width=".6" xlink:href="#m34767d432e"/>
 <use x="30.103125" y="84.303532" stroke="#000000" stroke-width=".6" xlink:href="#m34767d432e"/>
 <use x="30.103125" y="76.187371" stroke="#000000" stroke-width=".6" xlink:href="#m34767d432e"/>
 <use x="30.103125" y="68.071209" stroke="#000000" stroke-width=".6" xlink:href="#m34767d432e"/>
 <use x="30.103125" y="59.955048" stroke="#000000" stroke-width=".6" xlink:href="#m34767d432e"/>
 <use x="30.103125" y="43.722726" stroke="#000000" stroke-width=".6" xlink:href="#m34767d432e"/>
 <use x="30.103125" y="35.606564" stroke="#000000" stroke-width=".6" xlink:href="#m34767d432e"/>
 <use x="30.103125" y="27.490403" stroke="#000000" stroke-width=".6" xlink:href="#m34767d432e"/>
 <use x="30.103125" y="19.374242" stroke="#000000" stroke-width=".6" xlink:href="#m34767d432e"/>
 <path d="m30.103 214.16 8.0401-.079648 10.7-.35306 9.9861-.58402 9.6131-.79435 8.2268-.86063 10.095-1.284 7.8738-1.1758 9.7483-1.6673 9.8011-1.9125 9.1988-2.0103 10.742-2.6114 9.1582-2.4509 9.4188-2.7363 10.233-3.2206 9.1073-3.0833 11.515-4.1909 9.5131-3.7089 10.318-4.2746 9.6876-4.2524 10.82-5.0227 7.0823-3.444 11.592-5.9037 10.728-5.7586 8.6146-4.8295 11.978-7.019 11.901-7.3241 10.323-6.6355 9.2078-6.1403 10.624-7.3445 9.8579-7.0635 9.2425-6.84 10.643-8.1372 9.7711-7.7164 10.455-8.517 10.505-8.8293 12.025-10.441 11.857-10.643 11.833-10.967 10.893-10.401 11.524-11.322 1.3561-1.3538v0" clip-path="url(#p0754cab3b2)" fill="none" stroke="#00f" stroke-linecap="square"/>
 <path d="m30.103 218.22v-211.02" fill="none" stroke="#000" stroke-linecap="square" stroke-width=".8"/>
 <path d="m21.987 214.16h422.04" fill="none" stroke="#000" stroke-linecap="square" stroke-width=".8"/>
 <path d="m30.103 216.9c.72629 0 1.4229-.28856 1.9365-.80212.51356-.51356.80212-1.2102.80212-1.9365 0-.72629-.28856-1.4229-.80212-1.9365-.51356-.51356-1.2102-.80212-1.9365-.80212s-1.4229.28856-1.9365.80212c-.51356.51356-.80212 1.2102-.80212 1.9365 0 .72629.28856 1.4229.80212 1.9365.51356.51356 1.2102.80212 1.9365.80212z" clip-path="url(#p0754cab3b2)" fill="#f00"/>
 <path d="m233.01 216.9c.72629 0 1.4229-.28856 1.9365-.80212.51356-.51356.80212-1.2102.80212-1.9365 0-.72629-.28856-1.4229-.80212-1.9365-.51356-.51356-1.2102-.80212-1.9365-.80212s-1.4229.28856-1.9365.80212c-.51356.51356-.80212 1.2102-.80212 1.9365 0 .72629.28856 1.4229.80212 1.9365.51356.51356 1.2102.80212 1.9365.80212z" clip-path="url(#p0754cab3b2)" fill="#f00"/>
 <path d="m435.91 13.997c.72629 0 1.4229-.28856 1.9365-.80212.51356-.51356.80212-1.2102.80212-1.9365 0-.72629-.28856-1.4229-.80212-1.9365-.51356-.51356-1.2102-.80212-1.9365-.80212-.72629 0-1.4229.28856-1.9365.80212-.51356.51356-.80212 1.2102-.80212 1.9365 0 .72629.28856 1.4229.80212 1.9365.51356.51356 1.2102.80212 1.9365.80212z" clip-path="url(#p0754cab3b2)" fill="#f00"/>
 <defs>
  <clipPath id="p0754cab3b2">
   <rect x="21.987" y="7.2" width="422.04" height="211.02"/>
  </clipPath>
 </defs>
 <g transform="matrix(2.4163 0 0 2.4163 210.69 -115.47)">
  <g transform="translate(-229.32 119.2)">
   <g transform="translate(157.63 11.955)">
    <path d="m.45312 1.2188c-.078125.34375-.10938.40625-.54688.40625-.10938 0-.21875 0-.21875.1875 0 .078125.046875.125.125.125.26562 0 .5625-.03125.82812-.03125.34375 0 .67188.03125 1 .03125.046875 0 .17188 0 .17188-.20312 0-.10938-.09375-.10938-.23438-.10938-.5 0-.5-.0625-.5-.15625 0-.125.42188-1.75.48438-2 .125.29688.40625.64062.92188.64062 1.1562 0 2.4062-1.4531 2.4062-2.9219 0-.9375-.57812-1.5938-1.3281-1.5938-.5 0-.98438.35938-1.3125.75-.09375-.54688-.53125-.75-.89062-.75-.46875 0-.65625.39062-.73438.5625-.1875.34375-.3125.9375-.3125.96875 0 .10938.09375.10938.10938.10938.10938 0 .10938-.015625.17188-.23438.17188-.70312.375-1.1875.73438-1.1875.17188 0 .3125.078125.3125.45312 0 .23438-.03125.34375-.078125.51562zm1.75-4.3281c.0625-.26562.34375-.54688.51562-.70312.35938-.29688.64062-.375.8125-.375.39062 0 .64062.34375.64062.9375s-.32812 1.7344-.51562 2.1094c-.34375.70312-.8125 1.0312-1.1875 1.0312-.65625 0-.78125-.82812-.78125-.89062 0-.015625 0-.03125.03125-.15625z"/>
   </g>
   <g transform="translate(162.64 13.45)">
    <path d="m3.5938-2.2188c0-.76562-.09375-1.3281-.40625-1.8125-.21875-.3125-.65625-.59375-1.2031-.59375-1.625 0-1.625 1.9062-1.625 2.4062s0 2.3594 1.625 2.3594c1.6094 0 1.6094-1.8594 1.6094-2.3594zm-1.6094 2.1562c-.32812 0-.75-.1875-.89062-.75-.09375-.40625-.09375-.98438-.09375-1.5s0-1.0469.09375-1.4219c.15625-.54688.59375-.70312.89062-.70312.375 0 .73438.23438.85938.64062.10938.375.125.875.125 1.4844 0 .51562 0 1.0312-.09375 1.4688-.14062.64062-.60938.78125-.89062.78125z"/>
   </g>
  </g>
 </g>
 <g transform="matrix(2.4163 0 0 2.4163 376.09 -114.25)">
  <g transform="translate(-229.32 119.2)">
   <g transform="translate(167.12 11.955)">
    <path d="m.45312 1.2188c-.078125.34375-.10938.40625-.54688.40625-.10938 0-.21875 0-.21875.1875 0 .078125.046875.125.125.125.26562 0 .5625-.03125.82812-.03125.34375 0 .67188.03125 1 .03125.046875 0 .17188 0 .17188-.20312 0-.10938-.09375-.10938-.23438-.10938-.5 0-.5-.0625-.5-.15625 0-.125.42188-1.75.48438-2 .125.29688.40625.64062.92188.64062 1.1562 0 2.4062-1.4531 2.4062-2.9219 0-.9375-.57812-1.5938-1.3281-1.5938-.5 0-.98438.35938-1.3125.75-.09375-.54688-.53125-.75-.89062-.75-.46875 0-.65625.39062-.73438.5625-.1875.34375-.3125.9375-.3125.96875 0 .10938.09375.10938.10938.10938.10938 0 .10938-.015625.17188-.23438.17188-.70312.375-1.1875.73438-1.1875.17188 0 .3125.078125.3125.45312 0 .23438-.03125.34375-.078125.51562zm1.75-4.3281c.0625-.26562.34375-.54688.51562-.70312.35938-.29688.64062-.375.8125-.375.39062 0 .64062.34375.64062.9375s-.32812 1.7344-.51562 2.1094c-.34375.70312-.8125 1.0312-1.1875 1.0312-.65625 0-.78125-.82812-.78125-.89062 0-.015625 0-.03125.03125-.15625z"/>
   </g>
   <g transform="translate(172.13 13.45)">
    <path d="m2.3281-4.4375c0-.1875 0-.1875-.20312-.1875-.45312.4375-1.0781.4375-1.3594.4375v.25c.15625 0 .625 0 1-.1875v3.5469c0 .23438 0 .32812-.6875.32812h-.26562v.25c.125 0 .98438-.03125 1.2344-.03125.21875 0 1.0938.03125 1.25.03125v-.25h-.26562c-.70312 0-.70312-.09375-.70312-.32812z"/>
   </g>
  </g>
 </g>
 <g transform="matrix(2.4163 0 0 2.4163 530.93 -301.79)">
  <g transform="translate(-229.32 119.2)">
   <g transform="translate(176.6 11.955)">
    <path d="m.45312 1.2188c-.078125.34375-.10938.40625-.54688.40625-.10938 0-.21875 0-.21875.1875 0 .078125.046875.125.125.125.26562 0 .5625-.03125.82812-.03125.34375 0 .67188.03125 1 .03125.046875 0 .17188 0 .17188-.20312 0-.10938-.09375-.10938-.23438-.10938-.5 0-.5-.0625-.5-.15625 0-.125.42188-1.75.48438-2 .125.29688.40625.64062.92188.64062 1.1562 0 2.4062-1.4531 2.4062-2.9219 0-.9375-.57812-1.5938-1.3281-1.5938-.5 0-.98438.35938-1.3125.75-.09375-.54688-.53125-.75-.89062-.75-.46875 0-.65625.39062-.73438.5625-.1875.34375-.3125.9375-.3125.96875 0 .10938.09375.10938.10938.10938.10938 0 .10938-.015625.17188-.23438.17188-.70312.375-1.1875.73438-1.1875.17188 0 .3125.078125.3125.45312 0 .23438-.03125.34375-.078125.51562zm1.75-4.3281c.0625-.26562.34375-.54688.51562-.70312.35938-.29688.64062-.375.8125-.375.39062 0 .64062.34375.64062.9375s-.32812 1.7344-.51562 2.1094c-.34375.70312-.8125 1.0312-1.1875 1.0312-.65625 0-.78125-.82812-.78125-.89062 0-.015625 0-.03125.03125-.15625z"/>
   </g>
   <g transform="translate(181.61 13.45)">
    <path d="m3.5156-1.2656h-.23438c-.015625.15625-.09375.5625-.1875.625-.046875.046875-.57812.046875-.6875.046875h-1.2812c.73438-.64062.98438-.84375 1.3906-1.1719.51562-.40625 1-.84375 1-1.5 0-.84375-.73438-1.3594-1.625-1.3594-.85938 0-1.4531.60938-1.4531 1.25 0 .34375.29688.39062.375.39062.15625 0 .35938-.125.35938-.375 0-.125-.046875-.375-.40625-.375.21875-.48438.6875-.64062 1.0156-.64062.70312 0 1.0625.54688 1.0625 1.1094 0 .60938-.4375 1.0781-.65625 1.3281l-1.6719 1.6719c-.078125.0625-.078125.078125-.078125.26562h2.875z"/>
   </g>
  </g>
 </g>
</svg>
